# xmcd
#
# Track frame offsets:
#	150
#	15337
#	38665
#
# Disc length: 861 seconds
#
# Revision: 0
# Processed by: cddbd v1.5.2PL0 Copyright (c) Steve Scherf et al.
# Submitted via: audiograbber 1.83.01
#
DISCID=13035b03
DTITLE=2XL - Got To Get Down [CDM)
DYEAR=2001
DGENRE=Dance
TTITLE0=Got To Get Down (Radio Mix)
TTITLE1=Got To Get Down (Extended Version)
TTITLE2=Got To Get Down (Trance Mix)
EXTD=TR.
EXTT0=
EXTT1=
EXTT2=
PLAYORDER=
